# xmcd
#
# Track frame offsets:
#	150
#	15067
#	29787
#	41505
#	54872
#	65852
#	76977
#	93865
#	102427
#	114052
#	121940
#	136532
#
# Disc length: 1979 seconds
#
# Revision: 0
# Processed by: cddbd v1.4PL0 Copyright (c) Steve Scherf et al.
# Submitted via: EasyCDDAExtractor 4.6.9.1
#
DISCID=8807b90c
DTITLE=Larry Sparks - The Old Church Yard
DYEAR=2001
DGENRE=Bluegrass
TTITLE0=The Old Church Yard
TTITLE1=Ship From The King's Harbor Shore
TTITLE2=He's Everything To Me
TTITLE3=I've Just Seen The Rock Of Ages
TTITLE4=Mother How I Miss You
TTITLE5=Wandering Soul
TTITLE6=The Testing Times
TTITLE7=I Want To See Him Smile
TTITLE8=Jesus Is All That I Need
TTITLE9=Everything's Alright
TTITLE10=Family Bible
TTITLE11=I Shall Not Be Moved
EXTD=
EXTT0=
EXTT1=
EXTT2=
EXTT3=
EXTT4=
EXTT5=
EXTT6=
EXTT7=
EXTT8=
EXTT9=
EXTT10=
EXTT11=
PLAYORDER=
